<svg xmlns="http://www.w3.org/2000/svg" fill="none" viewBox="0 0 2173 633">
  <path fill="#53dfdf" d="M422.4 444.5q4.3-2.7 4.3-6.1 0-4.3-.8-13l-24.2-319.7L464.7 0l26 335.3q2.5 39.9-13.9 76.2a530 530 0 0 1-38 68.5 268 268 0 0 1-57 61.5 435 435 0 0 1-167.6 83.2q-45 10.4-86.4 7.8A162 162 0 0 1 54.4 609a125 125 0 0 1-46.6-62.4Q-2.6 518 .8 486q4.4-33 17.3-65a629 629 0 0 1 31.1-62.4q17.4-30.3 32.9-55.5 51-78.8 92.4-119.5t72.6-51.1q31-10.5 51 2.6 20.6 13 28.4 42.4 7.8 28.5 2.6 66.7-5 37.3-25.9 76.3a264 264 0 0 1-55.3 71 264 264 0 0 1-87.2 51.1l37.1-113.5a199 199 0 0 0 45-14.7l24.1-11.3q-6.9-41.6-25.9-54.5a48 48 0 0 0-43.2-7q-24.2 7-47.5 26a202 202 0 0 0-38.9 41.6Q96.8 331 81.2 353.5a207 207 0 0 0-24.2 46q-8.6 22.5-2.6 45 6.9 22.5 35.4 45a122 122 0 0 0 58 24.3q33.6 4.4 71.6-.9a511 511 0 0 0 76-16.4 834 834 0 0 0 127-52"/>
  <path fill="#0f172a" d="M1708.5 521.4V212h93.6v56.8h3.5a88 88 0 0 1 32.6-44.5 92 92 0 0 1 54.7-16.3 92 92 0 0 1 55.2 16.5q23 16.5 29.2 44.3h3.2q8.6-27.6 33.9-44.1a105 105 0 0 1 59.4-16.7q43.8 0 71.2 28.2 27.4 28 27.4 76.9v208.2H2074V335.7q0-23.1-12-35.2a41 41 0 0 0-30.7-12.3 40 40 0 0 0-32 13.3 52 52 0 0 0-11.5 35.2v184.7H1893V334.7q0-21.5-11.6-34a40 40 0 0 0-30.8-12.5 42 42 0 0 0-38.3 23.6 61 61 0 0 0-5.4 26.6v183zm-182.9 5.8q-48.6 0-83.8-19.1a132 132 0 0 1-54-55 182 182 0 0 1-18.7-85.2q0-47.8 19-83.7t53.3-56 81.2-20.1q33 0 60.4 10.2a130 130 0 0 1 78.3 80.2q11 29.4 11 67.4v24.6h-268.7v-57.2h177.2a55 55 0 0 0-7.5-28 51 51 0 0 0-20-19.1q-12.3-7-28.7-7-16.5 0-29.6 7.4a55 55 0 0 0-28.8 48.3v58.2q0 19 7.4 33.2t21.2 22 32.6 7.8q13 0 23.8-3.6 10.6-3.6 18.3-10.6a44 44 0 0 0 11.5-17.4l90.4 2.6q-5.6 30.5-24.8 53a126 126 0 0 1-49.7 34.8 192 192 0 0 1-71.3 12.3M1332.5 109v412.4H1234V109zm-329.3 417.6a132 132 0 0 1-52.6-9.8 82 82 0 0 1-36-30.2 92 92 0 0 1-13.1-51q0-25.8 9-43.5a77 77 0 0 1 25-28.8q15.9-11.1 36.6-16.7a238 238 0 0 1 44.4-7.8q26.3-2.5 42.4-5a61 61 0 0 0 23.4-8 17 17 0 0 0 7.4-14.6v-1q0-15.6-10.6-24a45 45 0 0 0-28.8-8.5 53 53 0 0 0-31.4 8.5q-12 8.4-15.1 23.4l-90.9-3.3q4-28.2 20.8-50.3a112 112 0 0 1 46.3-35 177 177 0 0 1 71-13q29.7 0 54.7 7.1a135 135 0 0 1 43.4 20.2 91 91 0 0 1 28.6 32.2 91 91 0 0 1 10.3 43.7v210.2h-92.6v-43.1h-2.4a84 84 0 0 1-51.1 42.9 128 128 0 0 1-38.7 5.4m30.4-64.4q15.9 0 28.6-6.5a53 53 0 0 0 20.5-17.7 47 47 0 0 0 7.6-26.6V382a59 59 0 0 1-10.2 4 177 177 0 0 1-27.4 6.3q-7.5 1.3-14.3 2.2a89 89 0 0 0-23.8 6.9q-9.6 4.5-14.9 12-5 7.4-5 17.4 0 15.3 10.9 23.3t28 8M532 521.4V109h99.7v174.4h5.4L773.4 109h117.4L744.6 293l148.8 228.4H774.2L671.5 359.3l-39.8 50.3v111.8z"/>
</svg>
