<svg xmlns="http://www.w3.org/2000/svg" fill="none" viewBox="0 0 2373 435">
  <path fill="#0f172a" d="M2219.2 210.3v135h-75.4V108.5h71.6V152h2.7a66 66 0 0 1 26.8-34.1 80 80 0 0 1 45.2-12.5q24.9 0 43.3 11.3a75 75 0 0 1 28.7 31.1 98 98 0 0 1 10.2 46.6v151h-75.5V209.1a43 43 0 0 0-10-30.9 36 36 0 0 0-27.9-11q-11.8 0-21 5.2-8.8 5.1-13.8 14.6-4.7 9.6-5 23.2M1967 349.3a101 101 0 0 1-40.3-7.5 63 63 0 0 1-27.6-23.2 71 71 0 0 1-10-39q0-19.6 7-33.3 7-13.5 19-22a90 90 0 0 1 28.1-12.8q16-4.5 34-6a490 490 0 0 0 32.5-3.9 47 47 0 0 0 17.9-6 13 13 0 0 0 5.7-11.2v-.8q0-11.9-8.2-18.4a35 35 0 0 0-22-6.4q-15 0-24.1 6.4t-11.6 18l-69.5-2.5q3-21.6 15.9-38.6a86 86 0 0 1 35.5-26.8q22.6-9.9 54.4-9.9 22.5 0 41.8 5.4 19 5.2 33.3 15.4a70 70 0 0 1 29.8 58.1v161h-71v-33h-1.9q-6.3 12-16.2 20.4a65 65 0 0 1-23 12.5 98 98 0 0 1-29.5 4.1m23.3-49.3q12 0 21.9-5a41 41 0 0 0 15.7-13.5 36 36 0 0 0 5.8-20.4v-22.5a45 45 0 0 1-7.8 3.1 135 135 0 0 1-21 4.8l-11 1.7a68 68 0 0 0-18.1 5.2q-7.5 3.6-11.4 9.3a23 23 0 0 0-3.9 13.2q0 11.7 8.3 18a36 36 0 0 0 21.5 6m-481.2 45.4V108.5h71.7V152h2.7a67 67 0 0 1 66.9-46.6q24.6 0 42.2 12.7A55 55 0 0 1 1715 152h2.4q6.5-21.2 26-33.8a80 80 0 0 1 45.4-12.8q33.6 0 54.6 21.6 21 21.5 21 58.9v159.4H1789V203.2q0-17.9-9.1-27-9.1-9.4-23.6-9.4a31 31 0 0 0-24.5 10.1 40 40 0 0 0-8.8 27v141.4h-72.5v-143q0-16.5-9-26-8.8-9.5-23.5-9.5a32 32 0 0 0-29.3 18 47 47 0 0 0-4.2 20.4v140.1zM1396.8 243V108.6h75.2v236.8h-71.8v-44h-2.5a69 69 0 0 1-26.8 34.5 80 80 0 0 1-45.5 12.6 76 76 0 0 1-71-42q-10.3-20.1-10.4-47v-151h75.4v136.1q.1 19.3 10.1 30.4a35 35 0 0 0 27.3 11.1 41 41 0 0 0 20.2-5q9.1-5 14.4-14.6a48 48 0 0 0 5.4-23.4m-265.3-134.6h75.3v246.7q0 29.3-12 46.5a66 66 0 0 1-33.6 24.9 157 157 0 0 1-58.9 7.4l-7.7-.3v-57.2l9.3.6q15.5 0 21.5-5.9 6-5.7 6-17.6zm37.6-27.6a39 39 0 0 1-27.3-10.5 34 34 0 0 1-11.4-25.6q0-14.7 11.4-25.3Q1153.2 9 1169 9t27.3 10.6 11.4 25.3q0 15-11.4 25.6A39 39 0 0 1 1169 81M959.6 345.3V108.5h73.2v43.2h2.5a64 64 0 0 1 21-34.9 53 53 0 0 1 34.2-11.5 78 78 0 0 1 21 2.7v65.6a126 126 0 0 0-29.6-4q-13.4 0-24.1 6-10.6 5.9-16.8 16.5-6 10.5-6 24.6v128.6zM847.2 243V108.6h75.2v236.8h-71.8v-44H848a69 69 0 0 1-26.8 34.5 80 80 0 0 1-45.5 12.6 76 76 0 0 1-71-42q-10.2-20.1-10.4-47v-151h75.4v136.1q.1 19.3 10.2 30.4a35 35 0 0 0 27.3 11.1q11.2 0 20.2-5t14.3-14.6a48 48 0 0 0 5.4-23.4M433.3 91.5v-62h267v62h-95.8v253.8h-75.3V91.5z"/>
  <path fill="#53dfdf" d="M69.7 132.2q6.9 0 10 4.3a12 12 0 0 1 3.7 8.7q0 2.5-3.1 10-23.7 45.4-23.7 72.2 0 23 12.5 37.3a71 71 0 0 0 33 20q21 5.6 44.8 5.6 46 0 89.6-11.9 44.2-11.7 76.6-27.4l33.6-16.1q-.5-12.4-5-25l-6.8-23q-1.2-5-3.1-9.3-2-5-3.1-9.3-1.3-3.1.6-6.3l46-67.8q3.1-4.5 7.5-3.7 4.4 0 5.6 5l14.3 44.1q5.6 16.8 5.6 34.9 0 21.1-5.6 38.6a244 244 0 0 1-12.4 33q-19.3 41-76 76a481 481 0 0 1-70.3 34.1 350 350 0 0 1-115.8 22.5q-47.3 0-78.4-15.6a86 86 0 0 1-43.6-50.4Q0 297.7 0 276.6q0-24.3 12.4-54.2Q23.1 200 33 180.1q10.5-20.6 22.4-39.9 6.3-8 14.3-8m197-51q-1.2 2.5-5 4.4-28.6 5-56.6 10.6a2766 2766 0 0 1-57.3 10.6q-4.4.6-6.8-3.2-3.1-3-.7-7.4l34.9-71q.6-1.2 2.5-1.9l3.1-1.8q29.3-5 57.3-10L294.7.3q4.4-1.2 7.5 2.5 3 3.1 0 8z"/>
</svg>
