<svg xmlns="http://www.w3.org/2000/svg" fill="none" viewBox="0 0 409 379">
  <path fill="#0E8181" d="M69.7 132.2q6.9 0 10 4.3a12 12 0 0 1 3.7 8.7q0 2.5-3.1 10-23.7 45.4-23.7 72.2 0 23 12.5 37.3a71 71 0 0 0 33 20q21 5.6 44.8 5.6 46 0 89.6-11.9 44.2-11.7 76.6-27.4l33.6-16.1q-.5-12.4-5-25l-6.8-23q-1.2-5-3.1-9.3-2-5-3.1-9.3-1.3-3.1.6-6.3l46-67.8q3.1-4.5 7.5-3.7 4.4 0 5.6 5l14.3 44.1q5.6 16.8 5.6 34.9 0 21.1-5.6 38.6a244 244 0 0 1-12.4 33q-19.3 41-76 76a481 481 0 0 1-70.3 34.1 350 350 0 0 1-115.8 22.5q-47.3 0-78.4-15.6a86 86 0 0 1-43.6-50.4Q0 297.7 0 276.6q0-24.3 12.4-54.2Q23.1 200 33 180.1q10.5-20.6 22.4-39.9 6.3-8 14.3-8m197-51q-1.2 2.5-5 4.4-28.6 5-56.6 10.6a2766 2766 0 0 1-57.3 10.6q-4.4.6-6.8-3.2-3.1-3-.7-7.4l34.9-71q.6-1.2 2.5-1.9l3.1-1.8q29.3-5 57.3-10L294.7.3q4.4-1.2 7.5 2.5 3 3.1 0 8z"/>
</svg>
