<svg xmlns="http://www.w3.org/2000/svg" viewBox="0 0 725 933">
  <path fill="#0E8181" d="M623.7 655.1q6.4-3.7 6.4-9 0-6.4-1.3-19l-35.7-471.3L686.2 0l38.3 494.2q3.8 58.8-20.4 112.4a780 780 0 0 1-56.2 100.9 395 395 0 0 1-84.1 90.6 643 643 0 0 1-116.1 74.1 627 627 0 0 1-131.4 48.5 442 442 0 0 1-127.5 11.5q-61.2-5.1-108.4-34.4-46-30.7-69-92a197 197 0 0 1-10.1-89.4 390 390 0 0 1 25.5-95.8q20.4-47.2 45.9-92Q98.2 484 121.2 447q75.2-116.3 136.4-176.3t107.2-75.3 75.2 3.8q30.7 19.2 42.1 62.6 11.5 42.1 3.9 98.3a339 339 0 0 1-38.3 112.4 389 389 0 0 1-81.6 104.7 390 390 0 0 1-128.9 75.4l54.9-167.3q24.2-5.1 38.3-10.2a214 214 0 0 0 28-11.5l35.7-16.6Q384 385.7 356 366.5a70 70 0 0 0-63.8-10.2 198 198 0 0 0-70.2 38.3q-34.4 28.1-57.4 61.3-21.6 32-44.6 65.1a305 305 0 0 0-35.7 67.7 105 105 0 0 0-3.8 66.4q10.2 33.3 52.3 66.4a180 180 0 0 0 85.4 35.8Q268 763.6 324 756a756 756 0 0 0 112.2-24.3 1233 1233 0 0 0 187.5-76.6"/>
</svg>
